<svg width="307" height="307" viewBox="0 0 307 307" fill="none" xmlns="http://www.w3.org/2000/svg">
<g clip-path="url(#clip0_2_27)">
<rect width="307" height="308.89" rx="35" fill="#E97630"/>
<rect x="47.3065" y="47.307" width="212.387" height="212.386" rx="10" fill="white"/>
</g>
<path d="M106.96 89.8395C125.798 104.222 146.061 133.383 153.5 149.033C160.941 133.384 181.202 104.222 200.041 89.8395C213.634 79.4618 235.657 71.4321 235.657 96.983C235.657 102.086 232.781 139.85 231.093 145.98C225.228 167.295 203.856 172.732 184.844 169.441C218.076 175.193 226.529 194.245 208.273 213.296C173.599 249.479 158.437 204.218 154.55 192.62C153.838 190.494 153.505 189.5 153.5 190.345C153.495 189.5 153.162 190.494 152.45 192.62C148.564 204.218 133.403 249.48 98.7274 213.296C80.4705 194.245 88.9239 175.192 122.156 169.441C103.144 172.732 81.7711 167.295 75.9068 145.98C74.2194 139.849 71.3425 102.085 71.3425 96.983C71.3425 71.4321 93.3678 79.4618 106.96 89.8395Z" fill="#1185FE"/>
<defs>
<clipPath id="clip0_2_27">
<rect width="307" height="307" fill="white"/>
</clipPath>
</defs>
</svg>
